<?xml version="1.0" standalone="no"?>
<!DOCTYPE svg PUBLIC "-//W3C//DTD SVG 20010904//EN"
 "http://www.w3.org/TR/2001/REC-SVG-20010904/DTD/svg10.dtd">
<svg version="1.0" xmlns="http://www.w3.org/2000/svg"
 width="570.000000pt" height="191.000000pt" viewBox="0 0 570.000000 191.000000"
 preserveAspectRatio="xMidYMid meet">

<g transform="translate(0.000000,191.000000) scale(0.100000,-0.100000)"
fill="#000000" stroke="none">
<path d="M861 1264 c-73 -20 -163 -69 -219 -120 l-47 -43 112 -3 112 -3 -37
-72 -37 -73 -117 0 c-109 0 -118 -1 -118 -19 0 -18 9 -19 129 -20 147 -2 206
-15 268 -61 59 -43 105 -136 102 -207 -2 -34 -7 -54 -16 -58 -8 -2 -11 -10 -7
-16 4 -8 3 -9 -4 -5 -15 9 -51 -10 -84 -46 -76 -81 20 -217 123 -174 19 8 43
24 54 36 36 40 69 50 164 50 l90 0 34 43 c99 121 135 284 97 431 -11 44 -28
88 -37 98 -9 10 -13 18 -10 18 13 0 -46 77 -96 125 -54 51 -152 109 -168 99
-5 -3 -9 -1 -9 3 0 13 -108 33 -171 32 -30 0 -78 -7 -108 -15z m485 -210 c42
-41 43 -44 41 -101 -3 -70 -24 -104 -85 -134 -69 -34 -145 -12 -181 51 -45 80
-17 174 62 211 66 30 111 23 163 -27z m64 -389 c0 -18 -5 -25 -19 -25 -11 0
-23 5 -26 10 -11 18 3 40 25 40 15 0 20 -7 20 -25z m-26 -51 c14 -5 13 -11 -4
-45 -11 -21 -34 -54 -51 -74 -25 -28 -34 -33 -45 -24 -22 18 -17 34 27 94 43
57 47 59 73 49z m-348 -115 c42 -47 -6 -139 -65 -124 -42 11 -61 34 -61 77 0
32 5 41 30 57 35 21 71 17 96 -10z"/>
<path d="M1200 1027 c-33 -17 -51 -55 -44 -92 8 -41 33 -65 75 -71 28 -5 41
-1 66 20 27 23 31 32 29 72 -2 35 -8 50 -27 65 -28 22 -64 24 -99 6z"/>
<path d="M966 462 c-2 -4 -1 -14 4 -22 7 -11 12 -12 21 -3 6 6 8 16 5 22 -8
13 -23 14 -30 3z"/>
<path d="M1950 1069 c-65 -10 -93 -23 -130 -60 -44 -44 -63 -92 -62 -159 0
-95 43 -163 127 -201 49 -23 159 -25 195 -4 36 20 41 18 34 -12 -18 -79 -109
-105 -207 -60 l-56 25 -26 -39 c-14 -22 -23 -44 -21 -48 3 -5 27 -19 53 -32
69 -33 219 -34 280 -2 90 49 103 94 103 376 l0 217 -60 0 c-47 0 -60 -3 -60
-15 0 -18 -4 -19 -38 -1 -39 19 -80 24 -132 15z m104 -109 c33 -12 66 -66 66
-108 0 -71 -52 -122 -125 -122 -77 0 -121 51 -118 135 4 79 93 127 177 95z"/>
<path d="M3080 1071 c-57 -13 -84 -27 -117 -61 -57 -58 -78 -163 -51 -252 14
-48 74 -112 125 -134 52 -22 155 -14 194 15 29 21 29 21 29 1 0 -18 6 -20 60
-20 l60 0 0 225 0 225 -60 0 c-54 0 -60 -2 -60 -21 l0 -21 -33 21 c-39 24 -98
33 -147 22z m145 -131 c55 -52 52 -160 -6 -202 -30 -22 -104 -26 -139 -8 -77
41 -79 182 -2 225 39 22 116 14 147 -15z"/>
<path d="M4231 1069 c-18 -6 -44 -17 -57 -26 -23 -14 -24 -14 -24 6 0 19 -6
21 -60 21 l-60 0 0 -300 0 -300 60 0 60 0 0 94 0 95 43 -24 c81 -47 203 -24
264 50 96 116 58 315 -72 369 -45 19 -116 26 -154 15z m99 -114 c39 -20 60
-63 60 -120 0 -37 -6 -52 -33 -81 -27 -30 -41 -37 -73 -37 -63 -1 -91 10 -114
48 -74 119 39 252 160 190z"/>
<path d="M5131 1069 c-196 -37 -264 -266 -117 -396 123 -108 312 -73 380 71
56 117 16 236 -100 298 -58 30 -103 38 -163 27z m131 -138 c33 -37 42 -69 34
-115 -26 -139 -220 -134 -243 7 -19 117 131 195 209 108z"/>
<path d="M2495 1058 c-124 -45 -181 -160 -144 -291 32 -116 186 -186 320 -145
36 10 119 71 119 86 0 4 -20 18 -44 31 -45 23 -45 23 -73 4 -42 -30 -62 -34
-112 -27 -44 7 -101 48 -101 73 0 8 59 11 181 11 l182 0 -6 60 c-10 93 -53
155 -131 191 -46 21 -142 24 -191 7z m168 -128 c15 -16 27 -35 27 -40 0 -6
-46 -10 -115 -10 -105 0 -114 1 -108 18 27 75 140 94 196 32z"/>
<path d="M3500 845 l0 -225 60 0 60 0 0 93 c1 129 12 176 48 208 16 15 48 30
71 34 l41 7 0 54 c0 54 0 54 -30 54 -32 0 -82 -21 -112 -48 -17 -14 -18 -13
-18 16 l0 32 -60 0 -60 0 0 -225z"/>
<path d="M4610 845 l0 -225 60 0 60 0 0 103 c0 56 5 119 10 139 13 46 58 84
110 93 l40 7 0 54 c0 54 0 54 -30 54 -32 0 -82 -21 -112 -48 -17 -14 -18 -13
-18 16 l0 32 -60 0 -60 0 0 -225z"/>
<path d="M546 1024 c-3 -9 -6 -18 -6 -20 0 -2 36 -4 79 -4 59 0 84 4 95 16 9
8 16 17 16 20 0 2 -40 4 -89 4 -72 0 -90 -3 -95 -16z"/>
<path d="M772 709 c-23 -67 -39 -125 -36 -130 3 -5 1 -9 -4 -9 -4 0 -14 -22
-21 -50 l-13 -50 -61 -1 c-34 0 -101 0 -149 1 -83 1 -88 0 -98 -22 -21 -49
-51 -191 -42 -200 5 -5 78 -7 163 -6 129 3 154 5 154 18 0 8 2 17 5 20 3 3 16
38 28 77 l23 73 45 0 c37 0 44 3 44 20 0 16 -7 20 -35 20 -21 0 -35 5 -35 13
0 6 25 84 55 171 29 88 52 164 49 168 -16 26 -35 -3 -72 -113z m-249 -285 c3
-3 1 -17 -5 -30 -10 -21 -18 -24 -60 -24 -50 0 -51 1 -42 38 5 19 13 22 53 22
26 0 50 -3 54 -6z m157 2 c0 -3 -4 -16 -10 -30 -9 -24 -15 -26 -64 -26 -45 0
-54 3 -51 15 3 8 7 22 10 30 3 11 19 15 60 15 30 0 55 -2 55 -4z m-40 -122
c-10 -28 -13 -29 -61 -25 -39 2 -49 6 -45 18 3 8 6 19 6 23 0 7 94 19 108 14
1 0 -2 -14 -8 -30z m-144 10 c-3 -9 -6 -20 -6 -25 0 -5 -22 -9 -50 -9 -50 0
-55 4 -44 34 4 12 20 16 56 16 42 0 49 -3 44 -16z"/>
<path d="M3842 724 c-26 -18 -30 -65 -7 -88 27 -26 56 -29 84 -9 34 26 39 65
10 92 -27 25 -56 27 -87 5z"/>
</g>
</svg>
